nColumns=19
nRows=101
DataType=double
version=3
OpenSimVersion=4.1
endheader
time	ground_force_calcn_r_vx	ground_force_calcn_r_vy	ground_force_calcn_r_vz	ground_force_calcn_r_px	ground_force_calcn_r_py	ground_force_calcn_r_pz	ground_force_calcn_r_mx	ground_force_calcn_r_my	ground_force_calcn_r_mz	ground_force_calcn_l_vx	ground_force_calcn_l_vy	ground_force_calcn_l_vz	ground_force_calcn_l_px	ground_force_calcn_l_py	ground_force_calcn_l_pz	ground_force_calcn_l_mx	ground_force_calcn_l_my	ground_force_calcn_l_mz
1.19167	-0.158661	10.5933	2.53544	-0.000611829	0	-0.00139309	-2.52654e-20	1.68689e-18	4.03748e-19	0	0	0	0	0	0	0	0	0
1.2	0	0	0	0	0	0	0	0	0	0	0	0	0	0	0	0	0	0
1.20833	0	0	0	0	0	0	0	0	0	0	0	0	0	0	0	0	0	0
1.21667	0	0	0	0	0	0	0	0	0	0	0	0	0	0	0	0	0	0
1.225	0	0	0	0	0	0	0	0	0	0	0	0	0	0	0	0	0	0
1.23333	0	0	0	0	0	0	0	0	0	0	0	0	0	0	0	0	0	0
1.24167	0	0	0	0	0	0	0	0	0	-0.130453	12.4545	-1.57088	-0.000612235	0	-0.00139352	-2.57229e-20	2.4558e-18	-3.09749e-19
1.25	0	0	0	0	0	0	0	0	0	-5.25039	26.9908	-4.86358	1.1093	0	-0.259154	0.118993	-0.611713	0.110227
1.25833	0	0	0	0	0	0	0	0	0	-14.8097	77.6258	-8.40313	1.13425	0	-0.326606	-0.431155	2.25992	-0.24464
1.26667	0	0	0	0	0	0	0	0	0	-30.5483	207.792	-11.7673	1.15007	0	-0.336993	-0.300114	2.04139	-0.115604
1.275	0	0	0	0	0	0	0	0	0	-51.6802	456.48	-13.6635	1.15232	0	-0.335345	0.417367	-3.68651	0.110346
1.28333	0	0	0	0	0	0	0	0	0	-80.307	792.723	-13.5962	1.14663	0	-0.330882	1.23675	-12.2081	0.209385
1.29167	0	0	0	0	0	0	0	0	0	-121.548	1083.5	-15.5719	1.13709	0	-0.326342	1.65625	-14.7641	0.212188
1.3	0	0	0	0	0	0	0	0	0	-171.261	1214.7	-26.4597	1.12465	0	-0.324887	0.590102	-4.18541	0.0911705
1.30833	0	0	0	0	0	0	0	0	0	-216.327	1227.66	-45.2675	1.10866	0	-0.329153	-2.51028	14.2459	-0.52529
1.31667	0	0	0	0	0	0	0	0	0	-246.335	1249.8	-56.755	1.08769	0	-0.335009	-4.71667	23.9304	-1.08671
1.325	0	0	0	0	0	0	0	0	0	-251.507	1348.99	-45.3283	1.06148	0	-0.334251	-2.5127	13.4772	-0.452856
1.33333	0	0	0	0	0	0	0	0	0	-223.568	1502.34	-15.9488	1.03222	0	-0.329336	1.44594	-9.71647	0.10315
1.34167	0	0	0	0	0	0	0	0	0	-169.221	1646.21	8.58845	1.00238	0	-0.327921	2.51189	-24.436	-0.127485
1.35	0	0	0	0	0	0	0	0	0	-109.09	1734.19	14.0182	0.973556	0	-0.331282	1.16055	-18.4491	-0.149132
1.35833	0	0	0	0	0	0	0	0	0	-59.8375	1763.86	9.73185	0.946435	0	-0.335635	0.0775226	-2.28517	-0.0126081
1.36667	0	0	0	0	0	0	0	0	0	-23.2669	1758.69	13.0175	0.920641	0	-0.337483	-0.0664034	5.01929	0.0371519
1.375	0	0	0	0	0	0	0	0	0	8.53179	1730.49	25.6187	0.895553	0	-0.337107	-0.00800356	-1.62335	-0.0240326
1.38333	0	0	0	0	0	0	0	0	0	43.3616	1670.36	33.9225	0.870832	0	-0.337429	-0.286271	-11.0276	-0.223955
1.39167	0	0	0	0	0	0	0	0	0	81.0561	1573.54	28.8387	0.845728	0	-0.339428	-0.655601	-12.7272	-0.233254
1.4	0	0	0	0	0	0	0	0	0	115.964	1448.71	16.0308	0.819942	0	-0.34096	-0.686837	-8.58047	-0.0949478
1.40833	0	0	0	0	0	0	0	0	0	145.019	1303.68	5.03249	0.793681	0	-0.339861	-0.639948	-5.75295	-0.0222076
1.41667	0	0	0	0	0	0	0	0	0	171.637	1133.07	-3.77706	0.765015	0	-0.336691	-0.717233	-4.73486	0.0157835
1.425	0	0	0	0	0	0	0	0	0	197.57	928.416	-15.9819	0.729734	0	-0.333679	-0.0636866	-0.299275	0.00515175
1.43333	0	0	0	0	0	0	0	0	0	212.131	704.984	-30.9359	0.688023	0	-0.330982	2.31558	7.69546	-0.337689
1.44167	0	0	0	0	0	0	0	0	0	198.975	498.955	-39.4187	0.65021	0	-0.327057	4.66501	11.6981	-0.924177
1.45	0	0	0	0	0	0	0	0	0	160.274	334.775	-34.546	0.62782	0	-0.324866	3.34516	6.98728	-0.721029
1.45833	0	0	0	0	0	0	0	0	0	112.637	214.031	-20.8783	0.626104	0	-0.33115	-1.16922	-2.22173	0.216725
1.46667	0	0	0	0	0	0	0	0	0	69.3165	126.383	-9.46077	0.642134	0	-0.347636	-4.40706	-8.03525	0.601504
1.475	0	0	0	0	0	0	0	0	0	35.9317	63.8178	-5.70969	0.654093	0	-0.365273	-3.76146	-6.68067	0.59771
1.48333	0	0	0	0	0	0	0	0	0	13.5936	25.5517	-5.61577	0.643737	0	-0.350527	-1.04653	-1.96715	0.432341
1.49167	0	0	0	0	0	0	0	0	0	2.75156	10.4574	-3.28022	-0.000614092	0	-0.00139549	-8.25762e-20	-3.13833e-19	9.84416e-20
1.5	0	0	0	0	0	0	0	0	0	0	0	0	0	0	0	0	0	0
1.50833	0	0	0	0	0	0	0	0	0	0	0	0	0	0	0	0	0	0
1.51667	0	0	0	0	0	0	0	0	0	0	0	0	0	0	0	0	0	0
1.525	0	0	0	0	0	0	0	0	0	0	0	0	0	0	0	0	0	0
1.53333	0	0	0	0	0	0	0	0	0	0	0	0	0	0	0	0	0	0
1.54167	0	0	0	0	0	0	0	0	0	0.483838	10.3864	2.80579	-0.000614018	0	-0.00139504	-0	-0	-0
1.55	0	0	0	0	0	0	0	0	0	0	0	0	0	0	0	0	0	0
1.55833	0	0	0	0	0	0	0	0	0	0	0	0	0	0	0	0	0	0
1.56667	0	0	0	0	0	0	0	0	0	0	0	0	0	0	0	0	0	0
1.575	0.922084	14.053	-2.23053	-0.000614212	0	-0.00139523	-8.28664e-20	-1.26293e-18	2.00455e-19	0	0	0	0	0	0	0	0	0
1.58333	-4.59117	38.2578	-3.26358	1.12441	0	-0.217652	0.220803	-1.83993	0.156956	0	0	0	0	0	0	0	0	0
1.59167	-13.8329	102.82	-5.77869	1.12699	0	-0.271864	-0.461986	3.43395	-0.192995	0	0	0	0	0	0	0	0	0
1.6	-23.7159	250.223	-8.21799	1.13071	0	-0.289257	-0.989234	10.4372	-0.342788	0	0	0	0	0	0	0	0	0
1.60833	-34.1183	511.256	-5.42149	1.1278	0	-0.292264	-0.817128	12.2445	-0.129844	0	0	0	0	0	0	0	0	0
1.61667	-55.0774	839.503	6.38915	1.11939	0	-0.29241	-0.258154	3.93484	0.0299466	0	0	0	0	0	0	0	0	0
1.625	-99.0537	1109.45	23.4699	1.1088	0	-0.291994	0.902204	-10.1051	-0.213769	0	0	0	0	0	0	0	0	0
1.63333	-160.933	1249.22	34.535	1.09647	0	-0.291969	2.35905	-18.3119	-0.506235	0	0	0	0	0	0	0	0	0
1.64167	-215.569	1321.64	30.4695	1.07902	0	-0.293897	2.17577	-13.3395	-0.307532	0	0	0	0	0	0	0	0	0
1.65	-236.544	1415.81	14.663	1.05406	0	-0.297072	0.00120979	-0.0072411	-7.49931e-05	0	0	0	0	0	0	0	0	0
1.65833	-215.306	1549	-0.226108	1.02453	0	-0.297983	-1.40185	10.0855	-0.00147218	0	0	0	0	0	0	0	0	0
1.66667	-170.499	1681.55	-6.42054	0.995649	0	-0.296232	-1.04693	10.3254	-0.0394246	0	0	0	0	0	0	0	0	0
1.675	-123.189	1768.56	-7.78165	0.969216	0	-0.294351	-0.348672	5.00573	-0.0220251	0	0	0	0	0	0	0	0	0
1.68333	-77.8568	1793.71	-11.3405	0.943772	0	-0.293757	-0.10558	2.43241	-0.0153786	0	0	0	0	0	0	0	0	0
1.69167	-33.7014	1768.57	-16.7034	0.918174	0	-0.293832	-0.0879678	4.61634	-0.0435995	0	0	0	0	0	0	0	0	0
1.7	5.91507	1711.6	-17.6234	0.89237	0	-0.293262	0.0240348	6.95477	-0.0716094	0	0	0	0	0	0	0	0	0
1.70833	39.5796	1628.42	-11.4864	0.866902	0	-0.291981	0.145696	5.99435	-0.0422823	0	0	0	0	0	0	0	0	0
1.71667	72.5901	1515.62	-2.10969	0.841393	0	-0.291371	0.159595	3.33221	-0.00463832	0	0	0	0	0	0	0	0	0
1.725	109.804	1371.64	6.92234	0.814409	0	-0.292422	0.122619	1.53172	0.00773024	0	0	0	0	0	0	0	0	0
1.73333	150.414	1199.44	16.6352	0.784486	0	-0.294506	-0.00722992	-0.0576533	-0.000799602	0	0	0	0	0	0	0	0	0
1.74167	190.294	1006.63	28.212	0.75041	0	-0.296712	-0.601314	-3.18088	-0.0891475	0	0	0	0	0	0	0	0	0
1.75	218.01	806.4	38.0369	0.713763	0	-0.299057	-1.78648	-6.60806	-0.311694	0	0	0	0	0	0	0	0	0
1.75833	216.833	614.707	40.7048	0.679	0	-0.301307	-2.56901	-7.28299	-0.482267	0	0	0	0	0	0	0	0	0
1.76667	185.361	442.885	35.3781	0.648376	0	-0.301933	-1.94214	-4.64036	-0.370676	0	0	0	0	0	0	0	0	0
1.775	139.718	298.395	26.3666	0.623931	0	-0.29865	-0.496993	-1.06143	-0.0937895	0	0	0	0	0	0	0	0	0
1.78333	95.9019	185.977	18.0921	0.61078	0	-0.28865	0.5589	1.08384	0.105438	0	0	0	0	0	0	0	0	0
1.79167	59.4817	105.298	11.6302	0.616636	0	-0.269679	0.85981	1.52209	0.168115	0	0	0	0	0	0	0	0	0
1.8	31.6705	52.3484	6.24861	0.653182	0	-0.239544	0.763181	1.26147	0.150576	0	0	0	0	0	0	0	0	0
1.80833	13.7367	23.1725	2.25761	0.755248	0	-0.19031	0.434678	0.733261	0.0714387	0	0	0	0	0	0	0	0	0
1.81667	4.87342	12.3886	0.790313	-0.000615313	0	-0.00139635	3.40864e-20	8.665e-20	5.52772e-21	0	0	0	0	0	0	0	0	0
1.825	1.349	10.8237	1.51764	-0.00061534	0	-0.00139638	-0	-0	-0	0	0	0	0	0	0	0	0	0
1.83333	0.342629	10.1286	2.38985	-0.000615367	0	-0.00139641	-0	-0	-0	0	0	0	0	0	0	0	0	0
1.84167	0	0	0	0	0	0	0	0	0	0	0	0	0	0	0	0	0	0
1.85	0	0	0	0	0	0	0	0	0	0	0	0	0	0	0	0	0	0
1.85833	0	0	0	0	0	0	0	0	0	0	0	0	0	0	0	0	0	0
1.86667	0	0	0	0	0	0	0	0	0	0	0	0	0	0	0	0	0	0
1.875	0.746153	10.1569	2.03938	-0.00061595	0	-0.00139746	1.1409e-19	1.55303e-18	3.11829e-19	0	0	0	0	0	0	0	0	0
1.88333	0	0	0	0	0	0	0	0	0	0	0	0	0	0	0	0	0	0
1.89167	0	0	0	0	0	0	0	0	0	0	0	0	0	0	0	0	0	0
1.9	0	0	0	0	0	0	0	0	0	-3.53202	16.5882	-2.89329	1.11371	0	-0.228629	0.0267703	-0.125727	0.0219292
1.90833	0	0	0	0	0	0	0	0	0	-9.44921	49.7597	-4.82616	1.15882	0	-0.290705	-0.209337	1.10237	-0.106918
1.91667	0	0	0	0	0	0	0	0	0	-22.5015	141.457	-8.20437	1.15457	0	-0.310508	-0.128646	0.808736	-0.046906
1.925	0	0	0	0	0	0	0	0	0	-43.9931	338.556	-11.6866	1.14738	0	-0.313065	0.516821	-3.97727	0.137292
1.93333	0	0	0	0	0	0	0	0	0	-74.423	649.99	-13.5392	1.13926	0	-0.309731	1.51283	-13.2126	0.275218
1.94167	0	0	0	0	0	0	0	0	0	-115.111	982.454	-16.5044	1.1299	0	-0.305196	2.32266	-19.8235	0.333017
1.95	0	0	0	0	0	0	0	0	0	-162.91	1193.49	-28.0278	1.11933	0	-0.302342	1.95491	-14.3219	0.336332
1.95833	0	0	0	0	0	0	0	0	0	-207.387	1256.03	-50.9071	1.10681	0	-0.303735	-0.538511	3.26147	-0.132188
1.96667	0	0	0	0	0	0	0	0	0	-237.818	1278	-73.645	1.08965	0	-0.308204	-3.47466	18.6723	-1.076
1.975	0	0	0	0	0	0	0	0	0	-247.32	1358.92	-77.8675	1.06478	0	-0.308794	-2.94439	16.1782	-0.927026
1.98333	0	0	0	0	0	0	0	0	0	-231.223	1503.51	-59.8647	1.03491	0	-0.304143	0.642323	-4.17666	0.166301
1.99167	0	0	0	0	0	0	0	0	0	-193.49	1652.64	-37.9593	1.00507	0	-0.300767	2.80386	-23.9484	0.550068
2	0	0	0	0	0	0	0	0	0	-145.805	1752.49	-32.0167	0.977264	0	-0.302091	2.06455	-24.8147	0.453348
2.00833	0	0	0	0	0	0	0	0	0	-98.1828	1794.22	-40.7215	0.951656	0	-0.305756	0.497244	-9.08677	0.206233
2.01667	0	0	0	0	0	0	0	0	0	-55.6806	1799.45	-46.5394	0.927456	0	-0.30792	-0.144189	4.6598	-0.120517
2.025	0	0	0	0	0	0	0	0	0	-18.0279	1784.18	-39.9242	0.90337	0	-0.307599	-0.0422426	4.18067	-0.0935499
